<svg id="visual" viewBox="0 0 540 960" width="540" height="960" xmlns="http://www.w3.org/2000/svg" xmlns:xlink="http://www.w3.org/1999/xlink" version="1.1"><rect x="0" y="0" width="540" height="960" fill="#fff"></rect><path d="M0 323L22.5 343.5C45 364 90 405 135 424.8C180 444.7 225 443.3 270 421.7C315 400 360 358 405 298.2C450 238.3 495 160.7 517.5 121.8L540 83L540 0L517.5 0C495 0 450 0 405 0C360 0 315 0 270 0C225 0 180 0 135 0C90 0 45 0 22.5 0L0 0Z" fill="#226516" stroke-linecap="round" stroke-linejoin="miter"></path></svg>